# xmcd
#
# Track frame offsets:
#	150
#	16992
#	36253
#	49877
#	63909
#	83803
#	95858
#	114625
#	128599
#	144066
#
# Disc length: 2186 seconds
#
# Revision: 1
# Processed by: cddbd v1.5.2PL0 Copyright (c) Steve Scherf et al.
# Submitted via: audiograbber 1.83.01
#
DISCID=8008880a
DTITLE=Sandra Dee - Tomorrow's Another Day
DYEAR=2006
DGENRE=Christian Country
TTITLE0=Tomorrow's Another Day
TTITLE1=Apple of Your Eye
TTITLE2=The Reins
TTITLE3=No Limit
TTITLE4=Let's Ride
TTITLE5=Old Love Letters
TTITLE6=It's About Him
TTITLE7=Stained  Glass Window
TTITLE8=Run to My Father
TTITLE9=I'm A Winner
EXTD=
EXTT0=
EXTT1=
EXTT2=
EXTT3=
EXTT4=
EXTT5=
EXTT6=
EXTT7=
EXTT8=
EXTT9=
PLAYORDER=
